HIERARCHY
ROOT cyl_med
{
	OFFSET 0.000000 0.000000 0.000000
	CHANNELS 6 Xposition Yposition Zposition Yrotation Xrotation Zrotation
	End Site
	{
		OFFSET 0.000000 0.000000 0.000000
	}
}
MOTION
Frames: 132
Frame Time: 0.008333334
-4.712498 0.649662 3.601484 -42.003170 23.830200 76.829660 
-4.660765 0.760083 3.588948 -45.093140 20.877790 71.943280 
-4.603541 0.874321 3.585714 -47.738710 18.202190 66.725270 
-4.540883 0.985270 3.590743 -50.226040 15.887150 61.406060 
-4.479233 1.085702 3.597468 -52.409610 14.113260 56.427440 
-4.418732 1.172249 3.601054 -54.359010 12.527940 52.571450 
-4.361416 1.244297 3.598055 -56.286470 10.882840 50.282120 
-4.306739 1.305534 3.589133 -57.806060 8.936603 49.171060 
-4.253029 1.360207 3.579934 -59.030120 6.897433 48.468030 
-4.198444 1.419549 3.581645 -60.375640 5.612927 46.980890 
-4.134752 1.488524 3.591063 -61.783420 4.695398 44.475280 
-4.070408 1.555130 3.603565 -63.234040 3.980935 41.992320 
-4.006599 1.618888 3.617573 -64.629910 3.560555 39.632240 
-3.944067 1.681301 3.637261 -66.088290 3.488672 37.224460 
-3.883717 1.741068 3.660986 -67.491150 3.589911 34.732050 
-3.826588 1.796399 3.689089 -68.726320 3.805232 32.187080 
-3.773732 1.846089 3.716912 -69.754520 3.961086 30.087710 
-3.723567 1.888667 3.744552 -70.436160 3.910942 28.273470 
-3.676118 1.926108 3.769905 -70.843960 3.690993 26.679860 
-3.630920 1.957836 3.794168 -71.085660 3.367119 25.315150 
-3.592058 1.986015 3.818291 -71.093290 3.024691 24.287800 
-3.559070 2.011241 3.844251 -70.981200 3.141254 23.354450 
-3.533154 2.033565 3.873005 -70.884250 3.616530 22.283770 
-3.513443 2.053766 3.903676 -70.569060 4.382223 21.329750 
-3.499401 2.072192 3.936684 -70.457150 5.516611 20.279920 
-3.487676 2.088794 3.970711 -70.231840 6.670021 19.224770 
-3.477798 2.103693 4.002960 -70.038760 7.749102 18.304660 
-3.468867 2.117467 4.033576 -69.763280 8.741939 17.383300 
-3.459258 2.130383 4.060943 -69.494480 9.480548 16.680660 
-3.451639 2.142506 4.085279 -69.083620 10.017370 16.101000 
-3.443558 2.155969 4.107179 -68.876710 10.518910 15.567690 
-3.435526 2.170909 4.127863 -68.837160 10.959260 14.958500 
-3.426862 2.189582 4.147385 -68.795200 11.324330 14.354390 
-3.416943 2.212630 4.166106 -68.858950 11.586030 13.714200 
-3.404577 2.241958 4.183338 -68.973570 11.656600 13.110100 
-3.389753 2.277428 4.200813 -68.974880 11.554740 12.343440 
-3.370310 2.321833 4.218187 -69.032440 11.192120 11.621570 
-3.347457 2.375963 4.235844 -69.004790 10.730380 10.841980 
-3.318543 2.440288 4.252900 -69.056790 10.095620 9.860413 
-3.284082 2.515288 4.271104 -69.128720 9.337225 8.842287 
-3.245640 2.600773 4.291296 -69.184080 8.490629 7.695706 
-3.201172 2.697075 4.313975 -69.167600 7.538632 6.325638 
-3.149663 2.804158 4.339467 -69.078980 6.601380 4.827445 
-3.090103 2.922177 4.368705 -69.014950 5.542831 3.136324 
-3.021360 3.050789 4.399515 -68.990720 4.483730 1.267239 
-2.942920 3.186740 4.433445 -68.926820 3.281811 -0.646271 
-2.854117 3.329195 4.469167 -68.875670 1.955087 -2.872681 
-2.755799 3.474718 4.504684 -68.720730 0.461527 -4.981689 
-2.646794 3.621570 4.541008 -68.790440 -1.350983 -7.131042 
-2.527981 3.768641 4.575423 -68.697270 -3.349640 -9.300720 
-2.399364 3.911991 4.607741 -68.563260 -5.569336 -11.396210 
-2.264058 4.048971 4.636285 -68.098970 -8.005981 -13.288510 
-2.124935 4.179817 4.661132 -67.488770 -10.690280 -15.091800 
-1.983840 4.301988 4.681695 -66.528840 -13.453460 -16.972350 
-1.842629 4.414936 4.699953 -65.316380 -16.287260 -18.571470 
-1.701568 4.517267 4.715482 -63.855040 -19.167270 -20.470640 
-1.563716 4.609469 4.730437 -62.051730 -21.788940 -22.368870 
-1.430983 4.689493 4.744746 -60.323120 -24.495090 -24.406770 
-1.305614 4.759028 4.759376 -58.408290 -26.814270 -26.438870 
-1.189834 4.817264 4.775780 -56.807250 -29.054780 -28.655330 
-1.086041 4.866740 4.790577 -55.428410 -31.096890 -30.761780 
-0.997349 4.907243 4.806594 -54.247340 -32.634860 -32.610690 
-0.926015 4.940801 4.821277 -53.218990 -34.144650 -34.051270 
-0.871945 4.970055 4.833912 -52.740880 -35.320560 -35.233800 
-0.839371 4.994456 4.843084 -52.570860 -35.909420 -36.094330 
-0.825647 5.012340 4.851044 -52.587770 -36.496800 -36.469760 
-0.834614 5.024918 4.857866 -53.102390 -36.604060 -36.473240 
-0.869840 5.034442 4.860223 -54.019170 -36.141450 -36.001400 
-0.933097 5.040233 4.856962 -54.861080 -35.277590 -34.928040 
-1.025603 5.042283 4.844242 -56.218750 -33.960970 -33.181640 
-1.147913 5.040671 4.821842 -57.588680 -32.198640 -30.828980 
-1.298852 5.031207 4.786351 -59.466000 -29.753720 -27.403590 
-1.481016 5.009125 4.739315 -61.560420 -26.915250 -23.254490 
-1.689865 4.969730 4.679242 -63.802490 -23.492430 -18.487460 
-1.925640 4.907479 4.609886 -66.011170 -19.170350 -13.388400 
-2.187675 4.816999 4.533997 -68.098210 -13.920010 -7.965363 
-2.471052 4.690671 4.458835 -69.931240 -7.732422 -2.507355 
-2.767853 4.525217 4.390835 -71.359620 -0.310944 2.509372 
-3.063724 4.316798 4.334136 -72.226260 7.832280 6.953709 
-3.347137 4.070060 4.293296 -72.672240 16.462180 10.841560 
-3.602283 3.794275 4.267230 -72.798400 24.908340 14.102120 
-3.823003 3.499023 4.251575 -72.577970 32.924430 16.860100 
-4.010041 3.188279 4.235314 -72.010650 40.432900 19.641300 
-4.164228 2.862171 4.217217 -70.338040 47.735420 23.862370 
-4.281314 2.538902 4.207297 -66.782100 54.279930 29.585810 
-4.362143 2.246117 4.216274 -61.019100 59.094220 36.660440 
-4.410760 2.008034 4.240437 -54.089260 61.270760 43.921640 
-4.435133 1.830086 4.268613 -48.053380 60.907080 49.872270 
-4.442447 1.708229 4.291721 -43.796840 58.983740 53.835630 
-4.435766 1.634601 4.302025 -41.892640 56.569570 55.785730 
-4.418119 1.602572 4.297099 -41.943390 54.679310 56.174150 
-4.393925 1.606283 4.283541 -43.383090 53.665110 55.323330 
-4.368497 1.640969 4.268263 -45.695620 53.667220 53.227660 
-4.342928 1.701555 4.255118 -48.727050 54.234380 50.166560 
-4.317938 1.784530 4.244701 -51.931270 54.763660 46.581130 
-4.291339 1.886159 4.236754 -55.208500 54.873290 42.609060 
-4.258898 2.007646 4.226172 -58.587160 54.139930 38.482390 
-4.219724 2.146855 4.214766 -61.580290 52.243730 34.724450 
-4.169174 2.301096 4.199596 -63.970830 49.552460 31.597330 
-4.106858 2.467397 4.180577 -65.836980 45.919540 28.905630 
-4.031918 2.643437 4.161345 -67.199770 41.807560 26.697240 
-3.943895 2.829099 4.144486 -68.100340 37.015430 24.690280 
-3.842901 3.019625 4.132917 -68.868840 31.968450 22.578440 
-3.733278 3.211786 4.130023 -69.500150 27.246070 20.087140 
-3.620762 3.401270 4.138059 -70.258940 23.071470 17.261570 
-3.507551 3.587374 4.160489 -70.945430 19.696730 14.122840 
-3.394920 3.767561 4.195926 -71.589840 16.911700 10.690190 
-3.280038 3.941145 4.240627 -72.058200 14.409120 7.190166 
-3.160322 4.105711 4.289433 -72.265050 11.815420 3.888323 
-3.032960 4.259859 4.337601 -71.946840 8.945817 0.787298 
-2.898440 4.400991 4.380729 -71.456940 5.782752 -2.011108 
-2.758295 4.527838 4.417504 -70.677120 2.210865 -4.398102 
-2.612327 4.638956 4.448335 -69.675260 -1.527740 -6.551086 
-2.462703 4.733711 4.473785 -68.517120 -5.561462 -8.793732 
-2.313363 4.811206 4.496221 -67.195830 -9.682861 -10.893100 
-2.166606 4.869857 4.515087 -65.815610 -13.860600 -12.857120 
-2.024757 4.909454 4.530339 -64.269170 -18.021330 -14.998630 
-1.894674 4.932648 4.543454 -62.591740 -22.051210 -17.226870 
-1.780355 4.940123 4.555370 -60.510830 -25.635410 -19.480410 
-1.685700 4.935029 4.564454 -58.046200 -28.757540 -21.827910 
-1.610302 4.921291 4.574654 -55.229430 -31.139220 -24.478330 
-1.556752 4.899443 4.584732 -52.567870 -32.845950 -26.811830 
-1.523478 4.872047 4.597069 -50.216160 -33.729340 -28.969970 
-1.509072 4.838735 4.612353 -48.516480 -34.190730 -30.855830 
-1.512798 4.798645 4.626795 -47.657170 -34.050110 -32.183350 
-1.533020 4.748538 4.643730 -47.757750 -33.915740 -32.955350 
-1.575973 4.691557 4.655437 -48.400050 -33.440280 -32.923250 
-1.642094 4.629809 4.655216 -49.958560 -32.550540 -31.786190 
-1.736043 4.560629 4.639674 -51.723240 -31.588440 -29.785430 
-1.860427 4.484131 4.600438 -53.458280 -30.320830 -26.628170 
-2.018206 4.398250 4.538731 -54.975680 -28.505040 -22.066860 
-2.212527 4.297322 4.457370 -56.437590 -25.994290 -16.300110 
